<svg width="44" height="44" viewBox="0 0 44 44" fill="none" xmlns="http://www.w3.org/2000/svg">
<rect opacity="0.4" x="0.5" y="0.5" width="43" height="43" rx="9.5" fill="white" fill-opacity="0.08" stroke="url(#paint0_linear_5_80)"/>
<path d="M28.1668 30.2832C27.4951 30.1139 26.9637 30.4793 26.4932 30.7984C26.0114 31.1273 25.0951 31.9982 24.57 31.7753C21.8811 30.4781 19.3521 27.7204 18.2574 24.5572C18.0644 23.9287 18.8042 22.8483 19.0828 22.2771C19.3532 21.7241 19.6586 21.0956 19.5193 20.3026C19.3934 19.5901 17.7652 17.1626 17.1895 16.4987C16.8098 16.0602 16.4208 15.8191 16.0215 15.7801C14.5202 15.7046 12.8435 18.0517 12.5495 18.6132C11.8127 19.8106 11.8169 21.4037 12.5618 23.3355C14.3572 28.5243 21.1475 36.3551 25.5925 38.5378C26.4128 38.9872 27.1629 39.2125 27.8366 39.2125C28.496 39.2125 29.0831 38.997 29.5876 38.5694C29.9684 38.3124 32.0536 36.2503 31.9989 34.444C31.9659 33.9835 31.7606 33.5231 31.3912 33.0773C30.8289 32.3965 28.7704 30.4318 28.1668 30.2832" fill="white"/>
<defs>
<linearGradient id="paint0_linear_5_80" x1="22" y1="0" x2="22" y2="44" gradientUnits="userSpaceOnUse">
<stop stop-color="white"/>
<stop offset="1" stop-color="white" stop-opacity="0"/>
</linearGradient>
</defs>
</svg>
